# xmcd
#
# Track frame offsets: 
#        150
#        15434
#        38187
#        54351
#        86615
#        103748
#        123671
#        148330
#
# Disc length: 2226 seconds
#
# Revision: 1
# Processed by: cddbd v1.5.2PL0 Copyright (c) Steve Scherf et al.
# Submitted via: ExactAudioCopy v0.95b3
#
DISCID=6908b008
DTITLE=Willie Colon - Lo Mato Si No Compra Este LP
DYEAR=1973
DGENRE=Salsa
TTITLE0=01-Señora Lola canta Hector Lavoe
TTITLE1=02-Todo Tiene su Final canta Hector Lavoe
TTITLE2=03-La Maria canta Hector Lavoe
TTITLE3=04-Junio 73 canta Hector Lavoe
TTITLE4=05-Calle Luna Calle Sol canta Hector Lavoe
TTITLE5=06-Voso canta Hector Lavoe
TTITLE6=07-El Dia De Suerte canta Hector Lavoe
TTITLE7=08-Gurija Ven canta Hector Lavoe
EXTD=YEAR: 1973
EXTT0=
EXTT1=
EXTT2=
EXTT3=
EXTT4=
EXTT5=
EXTT6=
EXTT7=
PLAYORDER=
